<svg xmlns="http://www.w3.org/2000/svg" viewBox="0 0 512 512" width="512" height="512" role="img">
	<defs>
		<linearGradient id="maskable-tile" x1="0" y1="0" x2="0" y2="1">
			<stop offset="0" stop-color="#c45e38"/>
			<stop offset="1" stop-color="#a14d32"/>
		</linearGradient>
	</defs>
	<rect width="512" height="512" rx="116" fill="url(#maskable-tile)"/><g transform="translate(256 256) scale(.72) translate(-256 -256)">
	<clipPath id="maskable-page"><rect x="94" y="158" width="324" height="306" rx="36"/></clipPath>
	<g clip-path="url(#maskable-page)">
		<rect x="94" y="158" width="324" height="306" rx="36" fill="#f8f6f3"/>
		<rect x="94" y="158" width="324" height="50" fill="#366d7e"/>
		<rect x="114" y="228" width="56" height="56" rx="14" fill="#f1b598"/><rect x="190" y="228" width="56" height="56" rx="14" fill="#f1b598"/><rect x="266" y="228" width="56" height="56" rx="14" fill="#f1b598"/><rect x="342" y="228" width="56" height="56" rx="14" fill="#f1b598"/><rect x="114" y="304" width="56" height="56" rx="14" fill="#f1b598"/><rect x="190" y="304" width="56" height="56" rx="14" fill="#c45e38"/><rect x="266" y="304" width="56" height="56" rx="14" fill="#f1b598"/><rect x="342" y="304" width="56" height="56" rx="14" fill="#f1b598"/><rect x="114" y="380" width="56" height="56" rx="14" fill="#f1b598"/><rect x="190" y="380" width="56" height="56" rx="14" fill="#f1b598"/><rect x="266" y="380" width="56" height="56" rx="14" fill="#f1b598"/><rect x="342" y="380" width="56" height="56" rx="14" fill="#f1b598"/>
	</g>
	<rect x="158" y="112" width="44" height="92" rx="22" fill="#0f172a"/>
	<rect x="310" y="112" width="44" height="92" rx="22" fill="#0f172a"/></g></svg>
